<svg xmlns="http://www.w3.org/2000/svg" viewBox="0 0 1208.19 88.32"><g id="Layer_2" data-name="Layer 2"><g id="Layer_1-2" data-name="Layer 1"><path d="M0,28.29A25.71,25.71,0,0,1,7.82,9.43,25.71,25.71,0,0,1,26.68,1.61H69.81A19.27,19.27,0,0,1,84,7.48a19.26,19.26,0,0,1,5.86,14.14,8,8,0,0,1-2.47,6A8.18,8.18,0,0,1,81.42,30a8,8,0,0,1-5.86-2.42,8.08,8.08,0,0,1-2.42-6q0-3.23-3.33-3.22H26.68a9.83,9.83,0,0,0-9.89,9.89V59.92a9.83,9.83,0,0,0,9.89,9.89H69.81q3.33,0,3.33-3.46a7.84,7.84,0,0,1,2.42-5.75,8,8,0,0,1,5.86-2.41,8.3,8.3,0,0,1,5.87,2.41,8,8,0,0,1,2.52,6,20,20,0,0,1-20,20H26.68A25.71,25.71,0,0,1,7.82,78.78,25.73,25.73,0,0,1,0,59.92Z"/><path d="M200.1,77.64l.23,1.84a8,8,0,0,1-2.59,6,8.49,8.49,0,0,1-6,2.47,8.08,8.08,0,0,1-5.35-1.89,8.72,8.72,0,0,1-2.93-4.76L179.06,62H123.4l-4.26,19.34a8.65,8.65,0,0,1-3,4.76,8.56,8.56,0,0,1-11.38-.58,8.11,8.11,0,0,1-2.54-6l.24-1.84,12.3-54.9a26.62,26.62,0,0,1,9.49-15.21,26.13,26.13,0,0,1,17-6h20a26.32,26.32,0,0,1,17.08,6,26.56,26.56,0,0,1,9.48,15.1ZM127.31,45h47.95l-4.14-18.52a9.36,9.36,0,0,0-3.56-5.69,10,10,0,0,0-6.33-2.24h-20a9.72,9.72,0,0,0-6.21,2.3,9.52,9.52,0,0,0-3.56,5.63Z"/><path d="M219.3,2.42a8.27,8.27,0,0,1,2.53,6.09v51A10,10,0,0,0,232,69.58h43.82c2.3,0,3.45-1.17,3.45-3.49a8.51,8.51,0,1,1,17,0A20.42,20.42,0,0,1,275.88,86.6H232a27.11,27.11,0,0,1-27.14-27.14V8.51a8.22,8.22,0,0,1,2.48-6,8.24,8.24,0,0,1,6-2.47A8.12,8.12,0,0,1,219.3,2.42Z"/><path d="M388.35,58a7.88,7.88,0,0,1,5.87,2.49,8.28,8.28,0,0,1,2.41,6,19.5,19.5,0,0,1-5.86,14.26,19.16,19.16,0,0,1-14.14,5.92h-43A26.73,26.73,0,0,1,306.93,60V28.1a25.62,25.62,0,0,1,7.82-18.77A25.7,25.7,0,0,1,333.61,1.5h43a19.18,19.18,0,0,1,14.14,5.9,19.46,19.46,0,0,1,5.86,14.22,8.25,8.25,0,0,1-2.41,5.87A7.84,7.84,0,0,1,388.35,30a8.45,8.45,0,0,1-8.39-8.4q0-3.33-3.33-3.33h-43a9.52,9.52,0,0,0-7,2.87,9.41,9.41,0,0,0-2.88,6.9v5.18h20.93a8.23,8.23,0,0,1,8.28,8.28,8.23,8.23,0,0,1-2.41,5.86,7.8,7.8,0,0,1-5.87,2.53H323.72v10a9.41,9.41,0,0,0,2.88,6.9,9.56,9.56,0,0,0,7,2.87h43q3.33,0,3.33-3.45A8.45,8.45,0,0,1,388.35,58Z"/><path d="M491.39,41.06a25.67,25.67,0,0,1,7.82,18.86A26.7,26.7,0,0,1,472.53,86.6H429.41a20,20,0,0,1-20.13-20.13V21.62a19.41,19.41,0,0,1,5.87-14.26A19.4,19.4,0,0,1,429.41,1.5h43.12a23.36,23.36,0,0,1,17.14,7.13,23.36,23.36,0,0,1,7.13,17.13A23.91,23.91,0,0,1,491.39,41.06Zm-62-22.77q-3.35,0-3.34,3.33V33.24h46.46A7.48,7.48,0,0,0,480,25.76a7.46,7.46,0,0,0-7.48-7.47Zm43.12,51.52a9.93,9.93,0,0,0,7-16.91,9.54,9.54,0,0,0-7-2.87H426.07V66.47c0,2.22,1.11,3.34,3.34,3.34h43.12Z"/><path d="M674.59,78l.23,1.84a8,8,0,0,1-2.59,6,8.48,8.48,0,0,1-11.33.57,8.64,8.64,0,0,1-3-4.77l-12.3-55.08a9.38,9.38,0,0,0-3.57-5.7,10.05,10.05,0,0,0-6.32-2.24H617.09V79.81a8,8,0,0,1-2.59,6,8.45,8.45,0,0,1-6,2.47,8.27,8.27,0,0,1-6-2.47,8.15,8.15,0,0,1-2.53-6V18.63H576.84a10,10,0,0,0-10.12,10.12V79.81a8.43,8.43,0,0,1-8.51,8.51,8.41,8.41,0,0,1-6.1-2.47,8.15,8.15,0,0,1-2.53-6V28.75a26.06,26.06,0,0,1,8-19.2,26.32,26.32,0,0,1,19.26-7.94h58.88a26.27,26.27,0,0,1,17.08,6,26.7,26.7,0,0,1,9.48,15.24Z"/><path d="M681.37,28.1a25.62,25.62,0,0,1,7.82-18.77A25.68,25.68,0,0,1,708.05,1.5h36.46a25.43,25.43,0,0,1,18.8,7.88,25.8,25.8,0,0,1,7.76,18.72V60a25.62,25.62,0,0,1-7.82,18.77,25.51,25.51,0,0,1-18.74,7.84H708.05a25.65,25.65,0,0,1-18.86-7.84A25.62,25.62,0,0,1,681.37,60ZM698.16,60a9.85,9.85,0,0,0,9.89,9.8h36.46A9.85,9.85,0,0,0,754.4,60V28.08a9.42,9.42,0,0,0-2.88-6.91,9.53,9.53,0,0,0-7-2.88H708.05a9.51,9.51,0,0,0-7,2.88,9.42,9.42,0,0,0-2.88,6.91Z"/><path d="M803.85,1.5h43a25.4,25.4,0,0,1,18.8,7.89,25.8,25.8,0,0,1,7.76,18.71,26.11,26.11,0,0,1-5.81,16.59,25.73,25.73,0,0,1-15,9.45l-25.07,5.64a4.65,4.65,0,0,0-4,5,4.75,4.75,0,0,0,1.55,3.63,5.19,5.19,0,0,0,3.63,1.44h33.46A7.89,7.89,0,0,1,868,72.28a8.17,8.17,0,0,1,2.41,5.92A8.25,8.25,0,0,1,868,84.07a7.84,7.84,0,0,1-5.87,2.53H828.69a21.83,21.83,0,0,1-21.85-21.93,21.46,21.46,0,0,1,4.71-13.61A21.23,21.23,0,0,1,824,43.32L849,37.67a9.39,9.39,0,0,0,5.52-3.4A9.73,9.73,0,0,0,856.75,28a9.85,9.85,0,0,0-9.89-9.81h-43q-3.35,0-3.34,3.34V79.57a8.4,8.4,0,0,1-16.79,0v-58a19.1,19.1,0,0,1,6-14.16A19.25,19.25,0,0,1,803.85,1.5Z"/><path d="M967.38,58a7.85,7.85,0,0,1,5.86,2.49,8.29,8.29,0,0,1,2.42,6,19.51,19.51,0,0,1-5.87,14.26,19.16,19.16,0,0,1-14.14,5.92h-43A26.73,26.73,0,0,1,886,60V28.1a25.58,25.58,0,0,1,7.82-18.77A25.68,25.68,0,0,1,912.64,1.5h43a19.18,19.18,0,0,1,14.14,5.9,19.47,19.47,0,0,1,5.87,14.22,8.26,8.26,0,0,1-2.42,5.87A7.82,7.82,0,0,1,967.38,30a8.45,8.45,0,0,1-8.4-8.4q0-3.33-3.33-3.33h-43a9.54,9.54,0,0,0-7,2.87,9.4,9.4,0,0,0-2.87,6.9v5.18h20.93A8.25,8.25,0,0,1,932,41.52a8.24,8.24,0,0,1-2.42,5.86,7.78,7.78,0,0,1-5.86,2.53H902.75v10a9.4,9.4,0,0,0,2.87,6.9,9.58,9.58,0,0,0,7,2.87h43q3.33,0,3.33-3.45a8.45,8.45,0,0,1,8.4-8.28Z"/><path d="M1072.26,1.5a8.2,8.2,0,0,1,6,2.47,8.22,8.22,0,0,1,2.48,6,8.19,8.19,0,0,1-2.48,6,8.21,8.21,0,0,1-6,2.48h-29.33v61a8,8,0,0,1-2.59,6,8.36,8.36,0,0,1-5.92,2.47,8.43,8.43,0,0,1-8.51-8.5v-61h-29.1a8.21,8.21,0,0,1-6-2.48,8.19,8.19,0,0,1-2.47-6,8.21,8.21,0,0,1,2.47-6,8.2,8.2,0,0,1,6-2.47Z"/><path d="M1173.57,1.5a8.21,8.21,0,0,1,6,2.47,8.21,8.21,0,0,1,2.47,6,8.19,8.19,0,0,1-2.47,6,8.22,8.22,0,0,1-6,2.48h-29.32v61a8,8,0,0,1-2.59,6,8.37,8.37,0,0,1-5.92,2.47,8.43,8.43,0,0,1-8.51-8.5v-61h-29.1a8.22,8.22,0,0,1-6-2.48,8.19,8.19,0,0,1-2.47-6,8.21,8.21,0,0,1,2.47-6,8.21,8.21,0,0,1,6-2.47Z"/><path d="M1191.05,8.51a8.27,8.27,0,0,1,2.47-6,8.11,8.11,0,0,1,6-2.53,8.27,8.27,0,0,1,6.09,2.53,8.18,8.18,0,0,1,2.54,6v71a8.18,8.18,0,0,1-2.54,6,8.31,8.31,0,0,1-6.09,2.53,8.06,8.06,0,0,1-6-2.59,8.33,8.33,0,0,1-2.47-5.92Z"/></g></g></svg>